Coordinates
version=1
nRows=8
nColumns=42
inDegrees=yes

Units are S.I. units (second, meters, Newtons, ...)
If the header above contains a line with 'inDegrees', this indicates whether rotational values are in degrees (yes) or radians (no).

endheader
time	pelvis_tilt	pelvis_list	pelvis_rotation	pelvis_tx	pelvis_ty	pelvis_tz	hip_flexion_r	hip_adduction_r	hip_rotation_r	knee_angle_r	knee_adduction_r	knee_angle_r_beta	ankle_angle_r	subtalar_angle_r	mtp_angle_r	hip_flexion_l	hip_adduction_l	hip_rotation_l	knee_angle_l	knee_adduction_l	knee_angle_l_beta	ankle_angle_l	subtalar_angle_l	mtp_angle_l	lumbar_extension	lumbar_bending	lumbar_rotation	arm_flex_r	arm_add_r	arm_rot_r	elbow_flex_r	pro_sup_r	wrist_flex_r	wrist_dev_r	arm_flex_l	arm_add_l	arm_rot_l	elbow_flex_l	pro_sup_l	wrist_flex_l	wrist_dev_l
      2.19000000	     -0.07698909	      1.78857912	     -3.49274267	      0.08122521	      0.97985526	      0.29267036	      4.01226399	     -9.22683939	      2.48710805	     52.06437465	      7.01684770	      0.90869476	      2.41555897	      4.56129111	     -7.50717873	      6.47602348	      2.04274302	    -11.43964100	      5.09506062	      0.63738248	      0.08892558	      2.27797150	     16.92296803	     -7.50717873	     -6.93907801	     -3.90979400	     -0.75782240	     -1.93947148	    -14.14710645	     13.45662366	     30.90885332	     90.00000001	      0.00000000	      0.00000000	     -3.67170726	    -15.34375114	     17.38424121	     27.21929994	     90.00000001	      0.00000000	      0.00000000
      2.20000000	      0.12926193	      1.54485070	     -3.19721639	      0.09063845	      0.98078669	      0.29111497	      5.27506492	     -8.99447603	      2.29899667	     53.28038463	      7.03617312	      0.92991814	      3.30111144	      4.68987330	     -7.50706189	      5.51679427	      1.91434796	    -11.19607050	      4.89767125	      0.73544752	      0.08548049	      2.79945006	     17.27018348	     -7.50706189	     -7.18945161	     -3.52105462	     -1.23192843	     -2.33781975	    -14.07094654	     13.45271387	     30.73117243	     90.00000001	      0.00000000	      0.00000000	     -2.79821162	    -15.40240349	     17.65400408	     27.27962065	     90.00000001	      0.00000000	      0.00000000
      2.21000000	      0.24084990	      1.37057377	     -2.83665120	      0.10003243	      0.98152309	      0.28941288	      6.62413840	     -8.85833491	      1.80794962	     54.26120763	      6.90716874	      0.94703673	      4.30349107	      5.61590656	     -7.50687574	      4.68812759	      1.90138589	    -10.81120370	      4.71352308	      0.74757440	      0.08226650	      3.29694513	     17.64026028	     -7.50687574	     -7.30913296	     -3.18022404	     -1.69635677	     -2.83636102	    -13.97369079	     13.31721078	     30.59600519	     90.00000001	      0.00000000	      0.00000000	     -1.85890619	    -15.50744206	     18.43348319	     27.30343411	     90.00000001	      0.00000000	      0.00000000
      2.22000000	      0.46685713	      1.15193305	     -2.49250082	      0.10921171	      0.98239863	      0.28764248	      7.79882344	     -8.72167508	      1.61924847	     54.91998200	      7.15926739	      0.95853451	      4.77412436	      5.81147989	     -7.50680682	      3.88369160	      1.80122699	    -10.75477747	      4.79872092	      0.79563972	      0.08375348	      3.58987817	     17.73172804	     -7.50680682	     -7.59883670	     -2.77504148	     -2.18560143	     -3.22081593	    -13.95593278	     13.27815229	     30.47086554	     90.00000001	      0.00000000	      0.00000000	     -0.99046793	    -15.54977571	     18.59154466	     27.54063199	     90.00000001	      0.00000000	      0.00000000
      2.23000000	      0.53135768	      0.94653497	     -2.15924220	      0.11838654	      0.98301709	      0.28620625	      9.11218643	     -8.45425106	      1.26783024	     55.31158371	      7.11608067	      0.96536925	      5.84298683	      6.34353863	     -7.50670689	      3.09943398	      1.75099904	    -10.19478835	      4.56128289	      0.75899218	      0.07960940	      4.29647339	     18.16004569	     -7.50670689	     -7.67552493	     -2.41052906	     -2.54263382	     -3.72701571	    -13.83440374	     13.14529504	     30.29233943	     90.00000001	      0.00000000	      0.00000000	      0.03968745	    -15.64713667	     19.19834547	     27.48675763	     90.00000001	      0.00000000	      0.00000000
      2.24000000	      0.61902487	      0.73358678	     -1.66889602	      0.12785404	      0.98359147	      0.28441596	     10.24919219	     -8.30258484	      0.49439600	     55.32497999	      7.03103997	      0.96560306	      6.76486723	      7.46724351	     -7.50654415	      2.33803402	      1.71935322	     -9.68310658	      4.42404035	      0.67324557	      0.07721407	      4.81420788	     18.43779852	     -7.50654415	     -7.73040615	     -1.98902502	     -2.98359395	     -4.32838864	    -13.71066765	     12.70743426	     30.16306834	     90.00000001	      0.00000000	      0.00000000	      1.03190589	    -15.81343847	     20.42869953	     27.56664842	     90.00000001	      0.00000000	      0.00000000
      2.25000000	      0.76737930	      0.66583627	     -1.37274055	      0.13684357	      0.98420239	      0.28287087	     11.40080478	     -8.22494776	      0.31084188	     55.14871436	      7.20970152	      0.96252664	      6.89228428	      7.52636637	     -7.50649478	      1.72560154	      1.77111592	     -9.85328824	      4.66484951	      0.64140493	      0.08141698	      4.92862660	     18.34106825	     -7.50649478	     -7.92105523	     -1.76241181	     -3.36326361	     -4.77852293	    -13.62809371	     12.70437490	     30.06859197	     90.00000001	      0.00000000	      0.00000000	      1.90407640	    -15.89531646	     20.42913115	     27.96386481	     90.00000001	      0.00000000	      0.00000000
      2.26000000	      1.09466106	      0.28241884	     -0.75065170	      0.14648500	      0.98485741	      0.28125650	     12.08732294	     -7.85001278	     -0.99878792	     54.58887993	      6.83887586	      0.95275569	      7.95027747	      8.68150295	     -7.50617634	      0.56998938	      1.52090154	     -8.89434348	      4.29093693	      0.58691556	      0.07489098	      5.62286426	     18.71591782	     -7.50617634	     -8.21531742	     -1.15994283	     -3.76501920	     -5.41229139	    -13.33420605	     11.48160297	     29.83450020	     90.00000001	      0.00000000	      0.00000000	      2.95555388	    -16.34866142	     23.00172636	     28.33431703	     90.00000001	      0.00000000	      0.00000000
